<svg id="mono-svg" width="320" height="42" fill="none" xmlns="http://www.w3.org/2000/svg"><path fill-rule="evenodd" clip-rule="evenodd" d="M24.867 29.098V17.395c0-3.32-1.813-4.895-4.857-4.895-2.531 0-4.72 1.475-5.678 2.95-.616-1.843-2.155-2.95-4.583-2.95-2.532 0-4.72 1.542-5.405 2.515v-2.113H0v16.196h4.344V18.2c.65-.905 1.916-1.911 3.42-1.911 1.78 0 2.463 1.073 2.463 2.582v10.227h4.379V18.167c.615-.872 1.88-1.878 3.42-1.878 1.779 0 2.463 1.073 2.463 2.582v10.227h4.378Zm11.938.402c-5.439 0-8.723-3.89-8.723-8.517 0-4.593 3.284-8.483 8.723-8.483 5.473 0 8.756 3.89 8.756 8.483 0 4.627-3.283 8.517-8.756 8.517Zm0-3.789c2.702 0 4.241-2.18 4.241-4.728 0-2.514-1.539-4.694-4.241-4.694-2.703 0-4.208 2.18-4.208 4.694 0 2.549 1.506 4.728 4.208 4.728Zm27.467 3.387V17.664c0-3.152-1.745-5.164-5.37-5.164-2.703 0-4.72 1.274-5.781 2.515v-2.113h-4.345v16.196h4.345V18.2c.718-.972 2.052-1.911 3.762-1.911 1.847 0 3.045.771 3.045 3.018v9.79h4.344Zm11.971.402c-5.438 0-8.722-3.89-8.722-8.517 0-4.593 3.284-8.483 8.722-8.483 5.473 0 8.757 3.89 8.757 8.483 0 4.627-3.284 8.517-8.757 8.517Zm0-3.789c2.703 0 4.242-2.18 4.242-4.728 0-2.514-1.54-4.694-4.242-4.694s-4.207 2.18-4.207 4.694c0 2.549 1.505 4.728 4.207 4.728Z" fill="#fff"/></svg>