<svg id="footer-gm" width="21" height="16" viewBox="0 0 21 16" fill="none" xmlns="http://www.w3.org/2000/svg">
<path d="M4.50812 7.43199V1.22998L10.5051 5.72775L16.5022 1.22998V7.43199L10.5051 11.9298L4.50812 7.43199Z" fill="white"/>
<path d="M4.50815 7.43192L0.010376 4.05859V14.569C0.010376 15.3616 0.652636 15.9999 1.44131 15.9999H4.50815V7.43192Z" fill="white"/>
<path d="M4.50815 1.23019L3.44422 0.433711C2.02891 -0.628263 0.010376 0.381003 0.010376 2.14966V4.05887L4.50815 7.4322V1.23019Z" fill="white"/>
<path d="M16.5022 7.43192V15.9999H19.569C20.3616 15.9999 21 15.3577 21 14.569V4.05859L16.5022 7.43192Z" fill="white"/>
<path d="M17.5661 0.433711L16.5022 1.23019V7.4322L21 4.05887V2.14966C21 0.381003 18.9795 -0.628263 17.5661 0.433711Z" fill="white"/>
</svg>
