<svg id="logo" width="211" height="30" viewBox="0 0 211 30" fill="none" xmlns="http://www.w3.org/2000/svg">
<path d="M0 0.000141479V30L5.99997 24.0015L5.99997 5.99849L0 0.000141479Z" fill="white"/>
<path d="M0 30H30.0011L24.0012 24.0015H5.99997L0 30Z" fill="white"/>
<path d="M0 0.000141479L5.99997 5.99849H30.0011V0L0 0.000141479Z" fill="white"/>
<path d="M24.0012 17.9992L24.0012 24.0015L30.0011 30V12.0007L24.0012 17.9992Z" fill="white"/>
<path d="M12.0012 12.0007V17.9992H24.0012L30.0011 12.0007H12.0012Z" fill="white"/>
<path d="M36.0033 0V5.99997V11.9999V17.9999V23.9999V29.9999H42.0033H66.0032V23.9999H42.0033V0H36.0033Z" fill="white"/>
<path d="M84.0054 0L84.0053 5.9985L84.0054 24.0014V29.9999H90.0054V24.0014L90.0053 5.9985L90.0054 0H84.0054Z" fill="white"/>
<path d="M72.0056 24.0014L72.0055 29.9999H84.0054H90.0054H102.007V24.0014H90.0054H84.0054H72.0056Z" fill="white"/>
<path d="M72.0055 1.15493e-05L72.0054 5.9985H84.0053H90.0053H102.007V1.15493e-05L90.0054 0H84.0054L72.0055 1.15493e-05Z" fill="white"/>
<path d="M108.009 0.000141479V30L114.009 24.0015L114.009 5.99849L108.009 0.000141479Z" fill="white"/>
<path d="M108.009 30H138.01L132.01 24.0015H114.009L108.009 30Z" fill="white"/>
<path d="M108.009 0.000141479L114.009 5.99849H138.01V0L108.009 0.000141479Z" fill="white"/>
<path d="M132.01 17.9992L132.01 24.0015L138.01 30V12.0007L132.01 17.9992Z" fill="white"/>
<path d="M120.01 12.0007V17.9992H132.01L138.01 12.0007H120.01Z" fill="white"/>
<path d="M144.012 0V5.99997V11.9999V17.9999V23.9999V29.9999H150.012H174.012V23.9999H150.012V0H144.012Z" fill="white"/>
<path d="M180.014 0V5.99997V11.9999V17.9999V23.9999V29.9999H186.014H210.014V23.9999H186.014V17.9999H204.014V11.9999H186.014V5.99997H210.014V0H186.014H180.014Z" fill="white"/>
</svg>
