<svg id="mono-svg" width="320" height="42" viewBox="0 0 320 42" fill="none" xmlns="http://www.w3.org/2000/svg">
<path fill-rule="evenodd" clip-rule="evenodd" d="M24.8671 29.0977V17.3955C24.8671 14.0759 23.0543 12.5 20.0101 12.5C17.4788 12.5 15.2898 13.9754 14.332 15.4506C13.7162 13.6065 12.1771 12.5 9.74853 12.5C7.21726 12.5 5.02829 14.0424 4.34405 15.0147V12.9025H0V29.0977H4.34405V18.2004C4.99404 17.295 6.25959 16.289 7.7645 16.289C9.54322 16.289 10.2273 17.3619 10.2273 18.8709V29.0977H14.6056V18.1668C15.2213 17.295 16.4869 16.289 18.026 16.289C19.8047 16.289 20.4888 17.3619 20.4888 18.8709L20.489 29.0977H24.8671ZM36.8048 29.5C31.3662 29.5 28.0824 25.6104 28.0824 20.9833C28.0824 16.3896 31.3661 12.5002 36.8048 12.5002C42.2776 12.5002 45.5614 16.3898 45.5614 20.9833C45.5614 25.6104 42.2778 29.5 36.8048 29.5ZM36.8048 25.7111C39.5069 25.7111 41.0463 23.5316 41.0463 20.9833C41.0463 18.4686 39.5071 16.289 36.8048 16.289C34.1025 16.289 32.5975 18.4686 32.5975 20.9833C32.5975 23.5316 34.1026 25.7111 36.8048 25.7111ZM64.2716 29.0977V17.6637C64.2716 14.5119 62.5272 12.5 58.9014 12.5C56.1993 12.5 54.1812 13.7742 53.1208 15.0147V12.9025H48.7765V29.0977H53.1208V18.2004C53.8391 17.228 55.1731 16.289 56.8833 16.289C58.7304 16.289 59.9276 17.0603 59.9276 19.3068V29.0977H64.2716ZM76.2434 29.5C70.8048 29.5 67.521 25.6104 67.521 20.9833C67.521 16.3896 70.8047 12.5002 76.2434 12.5002C81.7162 12.5002 85 16.3898 85 20.9833C85 25.6104 81.7164 29.5 76.2434 29.5ZM76.2434 25.7111C78.9455 25.7111 80.4849 23.5316 80.4849 20.9833C80.4849 18.4686 78.9457 16.289 76.2434 16.289C73.5411 16.289 72.0361 18.4686 72.0361 20.9833C72.0361 23.5316 73.5412 25.7111 76.2434 25.7111Z" fill="white"/>
</svg>
